<svg width="78" height="76" viewBox="0 0 78 76" fill="none" xmlns="http://www.w3.org/2000/svg" xmlns:xlink="http://www.w3.org/1999/xlink">
<path d="M76.226,38.845C76.226,35.72 75.966,33.44 75.405,31.076L38.891,31.076L38.891,45.178L60.323,45.178C59.892,48.683 57.558,53.96 52.373,57.507L52.3,57.979L63.845,66.718L64.645,66.796C71.991,60.167 76.226,50.414 76.226,38.845Z" fill="#4285F4"/>
<path d="M38.891,76C49.391,76 58.206,72.622 64.645,66.796L52.373,57.506C49.089,59.744 44.681,61.306 38.891,61.306C28.606,61.306 19.878,54.678 16.766,45.516L16.31,45.553L4.305,54.631L4.148,55.058C10.544,67.471 23.68,76 38.891,76Z" fill="#34A853"/>
<path d="M16.766,45.516C15.945,43.151 15.47,40.618 15.47,38C15.47,35.382 15.945,32.849 16.723,30.485L16.701,29.981L4.546,20.757L4.148,20.942C1.512,26.093 0,31.878 0,38C0,44.122 1.512,49.907 4.148,55.058L16.766,45.516Z" fill="#FBBC05"/>
<path d="M38.891,14.693C46.193,14.693 51.119,17.775 53.928,20.351L64.904,9.88C58.163,3.758 49.391,0 38.891,0C23.68,0 10.544,8.529 4.148,20.942L16.723,30.484C19.878,21.322 28.606,14.693 38.891,14.693Z" fill="#EB4335"/>
</svg>
