<svg width="16" height="10" viewBox="0 0 16 10" fill="none" xmlns="http://www.w3.org/2000/svg" xmlns:xlink="http://www.w3.org/1999/xlink">
<path d="M1.38,8.016C1.636,8.016 1.846,8.091 2.012,8.255C2.178,8.42 2.253,8.63 2.253,8.885C2.253,9.139 2.178,9.349 2.012,9.514C1.846,9.679 1.636,9.753 1.38,9.753C1.109,9.753 0.898,9.679 0.732,9.514C0.567,9.349 0.491,9.139 0.491,8.885C0.491,8.63 0.567,8.42 0.732,8.255C0.898,8.091 1.109,8.016 1.38,8.016Z" fill="#024063"/>
<path d="M3.683,3.117C4.542,2.952 5.34,2.788 6.078,2.608L6.138,2.653C6.108,3.282 6.093,3.986 6.093,4.75L6.093,7.566C6.093,8.151 6.093,8.555 6.093,8.78C6.093,8.915 6.168,9.004 6.273,9.034L7.132,9.289L7.132,9.589C6.469,9.589 5.897,9.574 5.4,9.574C4.903,9.574 4.346,9.574 3.683,9.589L3.653,9.289L4.512,9.034C4.617,8.989 4.692,8.915 4.692,8.81C4.692,8.615 4.692,8.3 4.692,7.851L4.692,5.409C4.692,4.765 4.692,4.181 4.662,3.641L3.683,3.372L3.653,3.117L3.683,3.117ZM6.168,0.016C6.168,0.271 6.093,0.481 5.927,0.645C5.761,0.81 5.551,0.885 5.295,0.885C5.039,0.885 4.843,0.81 4.692,0.66C4.542,0.511 4.466,0.316 4.466,0.061C4.466,-0.209 4.542,-0.403 4.707,-0.568C4.873,-0.733 5.084,-0.793 5.34,-0.793C5.581,-0.793 5.776,-0.718 5.927,-0.583C6.078,-0.448 6.153,-0.239 6.153,0.016L6.168,0.016Z" fill="#024063"/>
<path d="M7.944,3.117C8.773,2.967 9.541,2.788 10.278,2.608L10.354,2.653L10.354,3.507C11.212,2.907 12.01,2.608 12.733,2.608C13.425,2.608 13.982,2.803 14.374,3.192C14.765,3.582 14.961,4.136 14.961,4.84L14.961,7.417C14.961,8.031 14.961,8.48 14.961,8.765C14.961,8.9 15.036,8.989 15.157,9.019L15.97,9.274L15.97,9.574C15.338,9.574 14.78,9.559 14.284,9.559C13.787,9.559 13.26,9.559 12.672,9.574L12.642,9.274L13.38,9.064C13.485,9.019 13.561,8.945 13.561,8.84C13.561,8.765 13.561,8.615 13.561,8.375L13.561,5.184C13.561,4.585 13.41,4.151 13.124,3.896C12.838,3.641 12.416,3.507 11.844,3.507C11.347,3.507 10.835,3.641 10.308,3.926L10.308,7.117C10.308,7.731 10.308,8.285 10.308,8.795C10.308,8.93 10.369,9.004 10.474,9.049L11.242,9.274L11.242,9.574C10.655,9.574 10.098,9.559 9.616,9.559C9.134,9.559 8.562,9.559 7.899,9.574L7.869,9.274L8.742,9.019C8.848,8.974 8.908,8.9 8.908,8.795C8.908,8.48 8.908,8.181 8.908,7.896L8.908,5.394C8.908,4.75 8.908,4.166 8.878,3.611L7.899,3.342L7.869,3.087L7.944,3.117Z" fill="#024063"/>
</svg>
