<svg width="48" height="46" viewBox="0 0 48 46" fill="none" xmlns="http://www.w3.org/2000/svg" xmlns:xlink="http://www.w3.org/1999/xlink">
<path d="M46.92,22.797C46.92,20.919 46.76,19.548 46.414,18.127L23.938,18.127L23.938,26.604L37.131,26.604C36.865,28.71 35.429,31.883 32.237,34.015L32.192,34.299L39.299,39.552L39.791,39.599C44.313,35.614 46.92,29.751 46.92,22.797Z" fill="#4285F4"/>
<path d="M23.939,45.131C30.402,45.131 35.829,43.101 39.792,39.598L32.238,34.015C30.216,35.36 27.503,36.299 23.939,36.299C17.609,36.299 12.236,32.314 10.32,26.807L10.04,26.829L2.65,32.286L2.554,32.543C6.49,40.004 14.576,45.131 23.939,45.131Z" fill="#34A853"/>
<path d="M10.32,26.807C9.815,25.386 9.522,23.863 9.522,22.289C9.522,20.715 9.815,19.193 10.294,17.771L10.28,17.469L2.798,11.924L2.553,12.035C0.931,15.132 0,18.609 0,22.289C0,25.969 0.931,29.446 2.553,32.543L10.32,26.807Z" fill="#FBBC05"/>
<path d="M23.939,8.279C28.434,8.279 31.466,10.132 33.195,11.68L39.951,5.386C35.802,1.706 30.402,-0.553 23.939,-0.553C14.576,-0.553 6.49,4.573 2.554,12.035L10.294,17.771C12.236,12.264 17.609,8.279 23.939,8.279Z" fill="#EB4335"/>
</svg>
