<svg width="120" height="80" viewBox="0 0 120 80" fill="none" xmlns="http://www.w3.org/2000/svg" xmlns:xlink="http://www.w3.org/1999/xlink">
<path d="M55.652,54.574C55.14,54.184 54.553,54.349 54.011,54.349C48.741,54.334 43.471,54.304 38.201,54.349C37.192,54.349 36.891,54.034 36.906,53.076C36.951,50.334 36.876,47.593 36.951,44.851C37.102,39.503 41.242,35.623 46.648,35.623C61.223,35.623 75.798,35.638 90.374,35.623C95.81,35.623 99.724,31.339 98.851,26.44C98.219,22.83 94.966,19.924 91.322,19.864C87.242,19.789 83.161,19.864 79.081,19.819C77.922,19.804 77.741,20.373 77.756,21.302C77.786,24.328 77.741,27.354 77.801,30.365C77.801,31.159 77.62,31.459 76.792,31.459C71.432,31.429 66.056,31.444 60.696,31.459C59.281,31.459 59.221,30.35 59.01,29.422C58.874,28.837 58.965,28.193 58.965,27.579C58.965,19.415 58.965,11.235 58.965,3.071C58.965,1.138 58.965,1.138 60.967,1.138C70.89,1.138 80.813,1.094 90.735,1.153C101.275,1.228 109.361,5.887 114.45,14.98C119.419,23.849 118.968,32.942 113.803,41.691C111.559,45.496 108.382,48.492 104.513,50.679C103.474,51.263 103.323,51.727 103.925,52.746C108.683,60.746 113.381,68.775 118.109,76.805C118.305,77.134 118.471,77.464 118.651,77.793C118.335,78.288 117.853,78.093 117.477,78.093C111.394,78.108 105.326,78.093 99.243,78.123C98.324,78.123 97.797,77.838 97.33,77.029C93.159,69.899 88.913,62.798 84.742,55.652C84.215,54.738 83.643,54.199 82.514,54.319C80.828,54.499 79.111,54.034 77.44,54.589C76.868,54.289 76.25,54.334 75.633,54.349C69.384,54.349 63.135,54.379 56.887,54.379C56.45,54.379 56.044,54.379 55.637,54.574L55.652,54.574Z" fill="#1AA7FF"/>
<path d="M55.652,54.574C56.043,54.379 56.465,54.379 56.902,54.379C63.15,54.379 69.399,54.349 75.648,54.349C76.265,54.349 76.883,54.289 77.455,54.589C71.763,67.996 61.75,76.295 47.401,78.962C30.431,82.123 13.913,74.228 5.406,59.382C-6.128,39.234 2.395,13.138 23.655,3.58C33.352,-0.779 43.275,-1.049 53.363,2.127C54.417,2.457 54.809,2.936 54.794,4.12C54.718,10.711 54.764,17.317 54.764,24.088C53.077,22.995 51.647,21.811 49.96,20.988C41.724,16.928 32.283,18.231 25.673,24.433C19.183,30.515 17.181,39.938 20.659,48.102C24.167,56.371 32.419,61.51 41.498,61.03C47.054,60.731 51.737,58.469 55.667,54.589L55.652,54.574Z" fill="#024063"/>
<path d="M35.897,30.979C34.602,30.979 33.548,32.043 33.548,33.331L33.548,41.945C33.548,42.799 34.256,43.503 35.114,43.503L35.897,43.503L35.897,53.63C35.897,54.064 36.258,54.409 36.68,54.409L41.393,54.409C41.829,54.409 42.176,54.049 42.176,53.63L42.176,51.173L39.751,51.173C39.074,51.173 38.532,50.619 38.532,49.96L38.532,44.851C38.532,44.177 39.089,43.638 39.751,43.638L42.13,43.638C42.13,43.159 42.07,42.784 42.447,42.41C42.642,42.215 42.898,42.095 43.2,42.095C43.576,42.095 43.576,42.679 43.2,42.679C42.944,42.679 42.718,42.889 42.718,43.159L42.718,43.503L42.959,43.503C43.817,43.503 44.525,42.799 44.525,41.945L44.525,33.331C44.525,32.043 43.471,30.994 42.176,30.979L40.911,30.979L39.932,31.953L39.029,31.054L38.125,31.953L37.147,30.979L35.882,30.979L35.897,30.979ZM39.044,24.718C40.565,24.718 41.799,25.946 41.799,27.459C41.799,28.972 40.565,30.2 39.044,30.2C37.523,30.2 36.288,28.972 36.288,27.459C36.288,25.946 37.523,24.718 39.044,24.718Z" clip-rule="evenodd" fill-rule="evenodd" fill="#024063"/>
<path d="M47.235,44.207L39.767,44.207C39.42,44.207 39.119,44.492 39.119,44.851L39.119,49.96C39.119,50.304 39.405,50.604 39.767,50.604L47.235,50.604C47.581,50.604 47.882,50.319 47.882,49.96L47.882,44.851C47.882,44.507 47.596,44.207 47.235,44.207Z" fill="#024063"/>
</svg>
