<svg width="26" height="30" viewBox="0 0 26 30" fill="none" xmlns="http://www.w3.org/2000/svg" xmlns:xlink="http://www.w3.org/1999/xlink">
<path d="M7.123,21.761C7.123,22.585 7.123,23.319 7.123,23.978C7.123,24.637 7.138,25.222 7.153,25.761C7.153,26.18 7.349,26.45 7.695,26.555L9.984,27.229L10.044,28.113C8.418,28.068 6.776,28.053 5.15,28.053C3.524,28.053 1.793,28.068 0.046,28.113L-0.029,27.229L2.5,26.465C2.847,26.375 3.027,26.15 3.057,25.836C3.057,25.297 3.087,24.682 3.087,24.008C3.087,23.334 3.087,22.585 3.087,21.761L3.087,5.148C3.087,4.459 3.087,3.83 3.087,3.26C3.087,2.706 3.072,2.197 3.057,1.747C3.057,1.388 2.877,1.163 2.56,1.058L0.001,0.264L-0.044,-0.62C1.732,-0.56 3.449,-0.545 5.15,-0.545C5.482,-0.545 5.903,-0.545 6.415,-0.575C6.927,-0.605 7.559,-0.62 8.282,-0.649C9.035,-0.679 9.652,-0.694 10.149,-0.709C10.646,-0.709 11.038,-0.724 11.339,-0.724C14.501,-0.724 16.88,-0.14 18.461,1.043C20.042,2.212 20.84,3.935 20.84,6.182C20.84,8.219 20.298,9.867 19.214,11.125C18.13,12.383 16.473,13.357 14.245,14.046C15.118,15.365 15.931,16.623 16.669,17.851C17.407,19.08 18.084,20.188 18.732,21.207C19.364,22.226 19.952,23.124 20.479,23.903C21.006,24.682 21.502,25.297 21.954,25.746C22.18,25.986 22.421,26.18 22.647,26.345C22.873,26.51 23.129,26.66 23.385,26.765C23.641,26.87 23.912,26.974 24.183,27.049C24.469,27.124 24.77,27.214 25.116,27.289L25.176,28.188C24.183,28.308 23.354,28.368 22.692,28.368C22.135,28.368 21.638,28.368 21.201,28.323C20.78,28.293 20.388,28.248 20.057,28.158C19.726,28.083 19.425,27.978 19.154,27.843C18.882,27.708 18.611,27.544 18.355,27.349C17.783,26.929 17.226,26.315 16.669,25.521C16.112,24.727 15.555,23.814 14.953,22.81C14.365,21.806 13.748,20.728 13.101,19.589C12.468,18.451 11.791,17.327 11.083,16.233C10.872,15.904 10.691,15.649 10.556,15.454C10.405,15.26 10.255,15.11 10.074,15.005C9.893,14.9 9.698,14.825 9.472,14.78C9.246,14.735 8.945,14.705 8.583,14.705L7.138,14.661L7.138,21.761L7.123,21.761ZM7.123,13.118C7.966,13.162 8.734,13.177 9.442,13.177C11.821,13.177 13.552,12.683 14.666,11.679C15.766,10.676 16.323,9.103 16.323,6.961C16.323,4.818 15.796,3.365 14.742,2.407C13.688,1.448 12.031,0.968 9.788,0.968C9.396,0.968 8.99,0.968 8.553,1.013C8.117,1.043 7.635,1.088 7.138,1.133L7.138,13.118L7.123,13.118Z" fill="#024063"/>
</svg>
