<svg width="14" height="26" viewBox="0 0 14 26" fill="none" xmlns="http://www.w3.org/2000/svg" xmlns:xlink="http://www.w3.org/1999/xlink">
<path d="M6.134,7.305C6.059,11.919 6.013,15.634 6.013,18.465C6.013,19.888 6.224,20.862 6.646,21.401C7.067,21.941 7.881,22.21 9.07,22.21C10.019,22.21 11.253,22.09 12.774,21.836L12.895,22.765C10.516,23.948 8.392,24.547 6.54,24.547C5.02,24.547 3.89,24.143 3.153,23.349C2.415,22.555 2.038,21.341 2.038,19.739C2.038,17.087 2.084,12.908 2.189,7.185L-0.657,6.496L-0.777,5.657L2.4,5.387L3.845,0.429C4.628,0.219 5.351,0.024 5.998,-0.17L6.209,-0.021C6.164,1.627 6.149,3.17 6.149,4.608L6.149,5.372L12.353,5.372L12.353,7.32L6.149,7.32L6.134,7.305Z" fill="#024063"/>
</svg>
