<svg width="30" height="32" viewBox="0 0 30 32" fill="none" xmlns="http://www.w3.org/2000/svg" xmlns:xlink="http://www.w3.org/1999/xlink">
<path d="M23.278,8.931L22.119,9.095L20.674,3.448C19.514,3.073 18.174,2.894 16.638,2.894C13.567,2.894 11.172,4.032 9.441,6.309C7.724,8.586 6.851,11.702 6.851,15.672C6.851,19.642 7.709,23.057 9.441,25.379C11.172,27.701 13.597,28.855 16.713,28.855C17.451,28.855 18.249,28.795 19.108,28.675L19.108,23.282C19.108,22.593 19.108,21.979 19.108,21.424C19.108,20.87 19.093,20.346 19.077,19.881C19.077,19.522 18.897,19.297 18.566,19.207L15.765,18.413L15.705,17.395C17.647,17.44 19.77,17.454 22.044,17.454C24.317,17.454 26.395,17.44 28.082,17.395L28.202,18.413L25.748,19.087C25.417,19.177 25.236,19.387 25.206,19.702C25.206,20.241 25.176,20.81 25.176,21.364C25.176,21.934 25.176,22.548 25.176,23.192L25.176,29.649L25.025,29.798C22.074,30.473 19.273,30.802 16.608,30.802C11.609,30.802 7.589,29.529 4.562,26.997C1.521,24.45 0,20.915 0,16.361C0,11.522 1.521,7.747 4.562,5.006C7.604,2.264 11.745,0.901 17,0.901C19.529,0.901 22.014,1.186 24.453,1.74L24.603,1.92L23.278,8.931Z" fill="#1AA7FF"/>
</svg>
