<svg width="20" height="22" viewBox="0 0 20 22" fill="none" xmlns="http://www.w3.org/2000/svg" xmlns:xlink="http://www.w3.org/1999/xlink">
<path d="M18.898,10.196C18.898,13.312 17.95,15.829 16.067,17.746C14.185,19.664 11.776,20.622 8.87,20.622C5.964,20.622 3.721,19.723 1.974,17.911C0.227,16.098 -0.661,13.731 -0.661,10.81C-0.661,7.889 0.257,5.357 2.094,3.44C3.931,1.522 6.356,0.578 9.382,0.578C12.243,0.578 14.547,1.462 16.278,3.215C18.025,4.968 18.898,7.29 18.898,10.196ZM3.555,10.376C3.555,12.922 4.037,15.005 4.985,16.608C5.949,18.21 7.364,19.019 9.247,19.019C11.008,19.019 12.348,18.315 13.282,16.892C14.2,15.484 14.667,13.387 14.667,10.615C14.667,8.009 14.185,5.956 13.207,4.443C12.243,2.945 10.828,2.196 8.975,2.196C7.229,2.196 5.889,2.87 4.94,4.219C3.992,5.567 3.54,7.619 3.54,10.361L3.555,10.376Z" fill="#024063"/>
</svg>
