<svg width="20" height="22" viewBox="0 0 20 22" fill="none" xmlns="http://www.w3.org/2000/svg" xmlns:xlink="http://www.w3.org/1999/xlink">
<path d="M18.641,18.705C16.097,19.993 13.431,20.637 10.616,20.637C7.273,20.637 4.533,19.813 2.41,18.165C0.286,16.518 -0.768,14.091 -0.768,10.885C-0.768,7.679 0.256,5.327 2.289,3.395C4.322,1.462 6.927,0.504 10.074,0.504C12.829,0.504 14.967,1.238 16.473,2.721C17.979,4.204 18.732,6.241 18.732,8.848C18.732,9.237 18.716,9.657 18.671,10.076L5.511,10.076C5.511,12.817 6.189,14.795 7.544,15.993C8.899,17.192 11.113,17.791 14.199,17.791C15.69,17.791 17.12,17.656 18.476,17.401L18.641,18.69L18.641,18.705ZM12.468,8.099L12.468,7.604C12.468,5.747 12.227,4.413 11.76,3.605C11.293,2.796 10.555,2.391 9.592,2.391C8.432,2.391 7.499,2.945 6.806,4.054C6.114,5.162 5.707,6.511 5.602,8.084L12.483,8.084L12.468,8.099Z" fill="#1AA7FF"/>
</svg>
