<svg width="16" height="22" viewBox="0 0 16 22" fill="none" xmlns="http://www.w3.org/2000/svg" xmlns:xlink="http://www.w3.org/1999/xlink">
<path d="M11.729,2.811C10.87,2.601 9.937,2.496 8.928,2.496C7.678,2.496 6.654,2.721 5.871,3.155C5.088,3.59 4.682,4.219 4.682,5.013C4.682,5.627 4.847,6.106 5.194,6.436C5.54,6.765 6.127,7.08 6.971,7.365L10.268,8.518C12.225,9.192 13.671,10.001 14.574,10.945C15.478,11.889 15.93,12.997 15.93,14.271C15.93,16.278 15.086,17.836 13.385,18.944C11.683,20.053 9.47,20.607 6.699,20.607C4.396,20.607 2.122,20.143 -0.091,19.199C0.375,17.372 0.752,15.589 1.068,13.881L2.122,13.716L3.598,18.18C4.441,18.465 5.48,18.615 6.745,18.615C7.934,18.615 8.913,18.39 9.651,17.941C10.389,17.491 10.765,16.862 10.765,16.053C10.765,15.379 10.539,14.825 10.102,14.36C9.651,13.896 8.762,13.447 7.437,12.997L4.923,12.143C3.312,11.589 2.107,10.855 1.294,9.956C0.481,9.057 0.074,7.964 0.074,6.675C0.074,4.683 0.857,3.155 2.438,2.091C4.019,1.028 6.188,0.489 8.958,0.489C11.232,0.489 13.295,0.818 15.132,1.492C14.725,3.275 14.364,4.968 14.078,6.571L12.948,6.735L11.714,2.811L11.729,2.811Z" fill="#1AA7FF"/>
</svg>
