<svg width="26" height="22" viewBox="0 0 26 22" fill="none" xmlns="http://www.w3.org/2000/svg" xmlns:xlink="http://www.w3.org/1999/xlink">
<path d="M15.97,18.42C13.952,19.888 11.754,20.637 9.375,20.637C7.146,20.637 5.475,20.098 4.346,19.004C3.216,17.911 2.659,16.383 2.659,14.39L2.659,10.046C2.659,7.125 2.629,4.968 2.584,3.59L-0.367,2.826L-0.488,1.987C2.87,1.477 5.836,0.953 8.411,0.414L8.637,0.578C8.562,2.286 8.516,4.398 8.516,6.9L8.516,13.207C8.516,14.825 8.833,16.008 9.48,16.742C10.112,17.476 11.016,17.836 12.19,17.836C13.5,17.836 14.69,17.551 15.774,16.997L15.774,8.278C15.774,6.361 15.744,4.788 15.699,3.545L12.913,2.826L12.793,1.987C16.045,1.477 18.951,0.953 21.496,0.414L21.737,0.578C21.646,2.331 21.586,4.473 21.586,7.035C21.586,11.994 21.586,15.02 21.601,16.113C21.601,16.652 21.661,17.102 21.722,17.431C21.797,17.761 21.917,18.016 22.113,18.195C22.309,18.375 22.595,18.495 22.971,18.57C23.348,18.645 23.89,18.69 24.582,18.705L24.688,19.604C22.715,20.293 21.014,20.622 19.583,20.622C17.746,20.622 16.542,19.888 15.955,18.405L15.97,18.42Z" fill="#1AA7FF"/>
</svg>
