<svg width="16" height="26" viewBox="0 0 16 26" fill="none" xmlns="http://www.w3.org/2000/svg" xmlns:xlink="http://www.w3.org/1999/xlink">
<path d="M8.846,7.47C8.771,11.724 8.726,15.334 8.726,18.3C8.726,19.679 8.936,20.637 9.358,21.162C9.78,21.686 10.593,21.956 11.812,21.956C12.746,21.956 13.755,21.896 14.854,21.791L15.019,23.019C12.836,24.083 10.803,24.622 8.906,24.622C7.009,24.622 5.503,24.218 4.449,23.424C3.395,22.63 2.868,21.416 2.868,19.814C2.868,16.967 2.913,12.833 2.989,7.38L0.203,6.661L0.022,5.552L3.456,5.238L5.413,0.429C6.572,0.219 7.641,0.024 8.605,-0.17L8.891,-0.021C8.846,1.627 8.831,3.38 8.831,5.238L14.598,5.238L14.598,7.47L8.831,7.47L8.846,7.47Z" fill="#1AA7FF"/>
</svg>
