<svg width="18" height="22" viewBox="0 0 18 22" fill="none" xmlns="http://www.w3.org/2000/svg" xmlns:xlink="http://www.w3.org/1999/xlink">
<path d="M16.703,18.6C15.544,19.319 14.339,19.843 13.104,20.158C11.87,20.472 10.725,20.622 9.671,20.622C6.645,20.622 4.205,19.768 2.353,18.046C0.486,16.338 -0.432,13.956 -0.432,10.915C-0.432,7.874 0.441,5.402 2.173,3.485C3.904,1.552 6.223,0.593 9.129,0.593C11.568,0.593 13.451,1.312 14.806,2.751C16.161,4.189 16.838,6.181 16.838,8.728C16.838,9.117 16.823,9.507 16.778,9.896L3.784,9.896C3.784,12.832 4.477,14.93 5.862,16.188C7.247,17.446 9.415,18.076 12.366,18.076C13.692,18.076 15.092,17.956 16.583,17.701L16.703,18.585L16.703,18.6ZM12.607,8.189L12.607,7.574C12.607,5.642 12.306,4.249 11.689,3.41C11.072,2.571 10.168,2.166 8.964,2.166C7.368,2.166 6.148,2.751 5.29,3.934C4.446,5.103 3.965,6.526 3.859,8.189L12.607,8.189Z" fill="#024063"/>
</svg>
