<svg width="24" height="30" viewBox="0 0 24 30" fill="none" xmlns="http://www.w3.org/2000/svg" xmlns:xlink="http://www.w3.org/1999/xlink">
<path d="M1.022,2.721L0.917,2.032C3.22,1.597 5.404,1.118 7.466,0.593L7.677,0.743L7.677,2.751C9.785,1.312 11.833,0.593 13.821,0.593C16.395,0.593 18.428,1.447 19.949,3.14C21.47,4.833 22.223,7.05 22.223,9.761C22.223,13.102 21.244,15.754 19.301,17.701C17.359,19.649 14.588,20.622 11.005,20.622C9.936,20.622 8.837,20.517 7.692,20.308L7.692,24.787C7.692,26.15 7.692,27.109 7.737,27.648C7.768,28.052 7.948,28.307 8.295,28.382L10.99,29.146L11.05,29.985C8.912,29.94 7.165,29.925 5.81,29.925C4.455,29.925 2.859,29.94 1.022,29.985L0.947,29.146L3.311,28.457C3.642,28.367 3.807,28.142 3.823,27.828C3.853,26.824 3.868,25.326 3.868,23.304L3.868,14.975C3.868,8.923 3.838,5.103 3.792,3.5L1.052,2.721L1.022,2.721ZM7.677,18.465C8.867,18.72 10.026,18.855 11.125,18.855C13.399,18.855 15.115,18.15 16.26,16.727C17.404,15.304 17.991,13.267 17.991,10.63C17.991,8.129 17.449,6.241 16.35,4.983C15.251,3.724 13.685,3.08 11.622,3.08C10.147,3.08 8.822,3.38 7.677,3.979L7.677,18.48L7.677,18.465Z" fill="#024063"/>
</svg>
