<svg width="16" height="22" viewBox="0 0 16 22" fill="none" xmlns="http://www.w3.org/2000/svg" xmlns:xlink="http://www.w3.org/1999/xlink">
<path d="M-0.286,2.032C2.003,1.597 4.186,1.118 6.264,0.593L6.475,0.743L6.475,3.14C9.019,1.447 11.504,0.593 13.943,0.593L14.048,0.713C13.657,2.751 13.265,4.863 12.874,7.035L12.046,7.185C11.654,6.031 11.293,5.088 10.931,4.383C10.57,3.679 10.013,3.335 9.245,3.335C8.477,3.335 7.574,3.679 6.459,4.354L6.459,13.222C6.459,15.349 6.46,16.877 6.505,17.791C6.505,18.165 6.685,18.39 7.017,18.48L9.757,19.259L9.817,20.098C7.679,20.053 5.932,20.038 4.577,20.038C3.222,20.038 1.626,20.053 -0.211,20.098L-0.286,19.259L2.108,18.57C2.439,18.465 2.605,18.255 2.62,17.941C2.62,17.357 2.635,16.518 2.635,15.424L2.635,8.443C2.635,6.211 2.605,4.563 2.56,3.47L-0.181,2.736L-0.286,2.047L-0.286,2.032Z" fill="#024063"/>
</svg>
